<mxfile host="app.diagrams.net" modified="2023-10-27T08:01:42.924Z" agent="Mozilla/5.0 (Windows NT 10.0; Win64; x64) AppleWebKit/537.36 (KHTML, like Gecko) Chrome/118.0.0.0 Safari/537.36" version="22.0.8" etag="IeASVV2hquHEN06228wM" type="github">
  <diagram name="Страница — 1" id="qiFgbVt-21_baP1hnvy8">
    <mxGraphModel>
      <root>
        <mxCell id="0" />
        <mxCell id="1" parent="0" />
      </root>
    </mxGraphModel>
  </diagram>
</mxfile>
